<?xml version="1.0" encoding="utf-8"?>
<!-- Generator: Adobe Illustrator 17.0.0, SVG Export Plug-In . SVG Version: 6.00 Build 0)  -->
<!DOCTYPE svg PUBLIC "-//W3C//DTD SVG 1.1//EN" "http://www.w3.org/Graphics/SVG/1.1/DTD/svg11.dtd">
<svg version="1.1" id="Layer_1" xmlns="http://www.w3.org/2000/svg" xmlns:xlink="http://www.w3.org/1999/xlink" x="0px" y="0px"
	 width="612px" height="792px" viewBox="0 0 612 792" enable-background="new 0 0 612 792" xml:space="preserve">
<g>
	<path d="M215.8,303c-0.2-2.5-2-5.3-5.2-6.3c-0.3-0.1-0.6-0.2-0.9-0.3c-0.1,0-0.3-0.1-0.4-0.2c-34.2,0-68.3,0-102.5,0
		c-0.1,0.1-0.3,0.2-0.4,0.2c-0.3,0.1-0.7,0.2-1,0.3c-3.5,1.2-5,4.4-5.1,6.8c0,0.4,0,0.8,0,1.2c0,53.6,0,107.2,0,160.8
		c0,0.4,0,0.9,0,1.3c0,0.6,0.1,1.2,0.3,1.8c1.2,3.6,4.4,5.2,6.9,5.3c0.4,0,0.8,0,1.2,0c33,0,65.9,0,98.9,0c0.4,0,0.8,0,1.2,0
		c0.6,0,1.2-0.1,1.8-0.3c3-1,4.8-3.1,5.3-6.2c0.1-0.8,0.1-1.5,0.1-2.3c0-53.3,0-106.6,0-159.9c0-0.3,0-0.6,0-0.8
		C215.8,303.9,215.8,303.4,215.8,303z M179.8,369.6c0-0.1,0.2-0.2,0.3-0.1c0.3,0.1,0.7,0.3,1,0.4c5.5,2.6,10.4,6.1,14.8,10.3
		c3.8,3.7,6.9,7.9,9.4,12.5c0.2,0.3,0.4,0.7,0.5,1.1c-0.1,0.1-0.1,0.2-0.2,0.3c-0.2,0.2-0.4,0.4-0.6,0.6c-8,8-16,16-24,24
		c-0.3,0.3-0.5,0.5-0.8,0.7c0,0-0.1,0-0.1,0c-0.1,0-0.1-0.1-0.2-0.2c0-0.3,0-0.6-0.1-0.8c0-3.4-0.1-6.7-0.1-10.1c0-12.5,0-25,0-37.4
		C179.7,370.5,179.8,370.1,179.8,369.6z M139.3,368c3-1.1,6-1.9,9.1-2.5c3.3-0.6,6.7-0.9,10-0.8c1.9,0,3.8,0.2,5.6,0.4
		c3,0.3,6,0.9,8.9,1.8c0.3,0.1,0.5,0.2,0.8,0.3c0.1,0,0.1,0.1,0.1,0.2c0,0.1,0,0.2,0.1,0.4c0,0.3,0,0.6,0,1c0,11.2,0,22.4,0,33.6
		c0,0.4,0,0.8,0,1.2c0,0,0,0.1-0.1,0.1c-0.1,0-0.2,0-0.2,0c-0.2-0.1-0.4-0.3-0.5-0.5c-2.9-2.8-5.8-5.7-8.6-8.5
		c-8.3-8.3-16.6-16.6-24.9-24.9c-0.3-0.3-0.6-0.6-0.8-0.9c-0.1-0.1-0.1-0.2-0.2-0.3C138.7,368.1,139,368.1,139.3,368z M108.7,396.4
		c0.2-0.4,0.3-0.8,0.5-1.2c2.8-5.8,6.6-11,11.2-15.5c3.3-3.2,7-5.9,11.1-8.2c0.3-0.2,0.6-0.3,1-0.5c0.2-0.1,0.3,0,0.4,0.1
		c0.3,0.3,0.6,0.5,0.9,0.8c5.7,5.7,11.3,11.3,17,17c2.2,2.2,4.4,4.4,6.6,6.6c0.3,0.3,0.5,0.5,0.7,0.8c0,0,0.1,0.2,0,0.2
		c0,0.1-0.1,0.1-0.2,0.1c-0.4,0-0.8,0-1.2,0c-6.2,0-12.4,0-18.6,0.1c-1.6,0-3.3,0-4.9,0c-7.7,0-15.4,0-23.2,0c-0.4,0-0.8,0-1.2,0
		C108.7,396.8,108.6,396.6,108.7,396.4z M107.8,437.4c-0.1,0.1-0.2,0.1-0.3,0.2c-0.2-0.1-0.3-0.3-0.3-0.5c-0.7-1.9-1.3-3.9-1.8-6
		c-0.6-2.5-1-5.1-1.3-7.7c-0.2-2.8-0.3-5.7-0.1-8.5c0.3-3.8,0.9-7.5,1.9-11.2c0.1-0.3,0.2-0.7,0.4-1c0.1,0,0.3-0.1,0.4-0.1
		c0.4,0,0.7,0,1.1,0c11,0,21.9,0,32.9,0c0.4,0,0.9,0,1.3,0.1c0,0,0.1,0.1,0.1,0.2c0,0.1-0.1,0.1-0.1,0.2c-0.1,0.2-0.3,0.3-0.4,0.4
		c-2.8,2.8-5.6,5.7-8.4,8.5c-8.2,8.2-16.3,16.3-24.5,24.5C108.4,436.8,108.1,437.1,107.8,437.4z M135.4,441.4c0,8.9,0,16.6,0,24.2
		c0,1.8,0,1.8-1.5,1c-10-5-17.8-12.5-23.3-22.2c-0.2-0.3-0.3-0.6-0.4-0.9c0-0.1,0-0.2,0-0.2c0-0.1,0.1-0.1,0.1-0.2
		c0.2-0.2,0.4-0.5,0.7-0.7c7.7-7.7,15.5-15.5,23.2-23.2c0.8-0.8,0.9-0.9,1-0.8c0.2,0.4,0.1,0.8,0.1,1.2
		C135.5,427.3,135.4,435,135.4,441.4z M175,469.4c-3.2,1.1-6.5,1.8-9.9,2.3c-3.5,0.5-7,0.6-10.5,0.4c-4.2-0.2-8.4-1-12.5-2.2
		c-0.2-0.1-0.4-0.1-0.6-0.2c-0.2-0.1-0.3-0.2-0.3-0.4c0-0.4,0-0.8,0-1.2c0-5.4,0-10.9,0-16.3c0-5.4,0-10.7,0-16.1c0-0.4,0-0.7,0-1.1
		c0-0.1,0-0.2,0.1-0.3c0.1-0.1,0.2,0,0.3,0.1c0.2,0.2,0.5,0.4,0.7,0.7c2.8,2.8,5.6,5.5,8.4,8.3c8.2,8.2,16.4,16.4,24.6,24.6
		C176.5,469.1,176.4,469,175,469.4z M206.7,441.3c-0.2,0.4-0.3,0.7-0.5,1.1c-2.3,4.7-5.3,8.9-8.9,12.7c-4.1,4.4-8.9,8-14.2,10.8
		c-1,0.5-0.9,0.6-1.7-0.2c-7.9-7.9-15.8-15.8-23.7-23.7c-0.2-0.2-0.4-0.4-0.5-0.6c0,0,0-0.2,0.1-0.2c0.2,0,0.4-0.1,0.6-0.1
		c3.2,0,6.4-0.1,9.6-0.1c4.9,0,9.8,0,14.6,0c7.8,0,15.6,0,23.4,0c0.4,0,0.8,0,1.2,0C206.6,441.1,206.7,441.2,206.7,441.3z
		 M211.2,426.8c-0.4,2.5-1,5-1.7,7.5c-0.1,0.2-0.2,0.5-0.2,0.7c0,0.1-0.1,0.1-0.1,0.2c-0.1,0-0.2,0.1-0.2,0.1c-11.6,0-23.1,0-34.7,0
		c-0.4,0-0.7,0-1.1,0c0-0.1-0.1-0.2-0.1-0.2c0.1-0.2,0.3-0.4,0.5-0.6c1.3-1.4,2.7-2.7,4-4.1c9.9-9.9,19.8-19.8,29.8-29.8
		c0.3-0.3,0.5-0.5,0.8-0.7c0.1-0.1,0.3-0.1,0.4,0.1c0.1,0.2,0.2,0.4,0.3,0.7c1.1,3.1,1.9,6.3,2.4,9.5c0.5,3.1,0.7,6.3,0.7,9.4
		C211.8,421.9,211.6,424.4,211.2,426.8z"/>
	<path d="M562.7,470c-0.1-0.1-0.2-0.2-0.2-0.3c-0.1-0.5-0.2-0.9-0.3-1.4c-0.7-2.7-1.5-5.5-2.3-8.2c-2.9-10.6-5.8-21.3-8.8-31.9
		c-2.6-9.4-5.2-18.9-7.8-28.3c-2.5-8.9-4.9-17.9-7.4-26.8c-0.6-2-1.1-4.1-1.7-6.1c-0.1-0.2-0.1-0.5-0.4-0.6c-0.3,0.3-0.4,0.7-0.6,1
		c-6.3,12.6-12.5,25.1-18.8,37.7c-5.9,11.8-11.8,23.7-17.7,35.5c-0.2,0.4-0.3,0.8-0.7,1.1c-0.5-0.2-0.5-0.7-0.7-1
		c-4.1-8.2-8.2-16.4-12.3-24.6c-8.1-16.2-16.2-32.3-24.3-48.5c-0.1-0.3-0.3-0.6-0.4-0.8c0-0.1-0.1-0.1-0.2-0.2c-0.1,0-0.2,0-0.2,0
		c-0.1,0.4-0.3,0.8-0.4,1.1c-2.4,8.9-4.8,17.8-7.3,26.7c-3.2,11.9-6.5,23.8-9.7,35.7c-2.4,8.7-4.8,17.4-7.1,26.1
		c-1.3,4.6-2.5,9.2-3.7,13.8c-0.2,0.9-0.2,0.8,0.6,1.1c0.1,0,0.2,0.1,0.4,0.1c2.6,0.7,5.2,1.4,7.8,2.1c1.8,0.5,3.6,1,5.3,1.4
		c0.3,0.1,0.6,0.1,0.9,0.2c0.1,0,0.2-0.1,0.2-0.1c0.1-0.2,0.2-0.4,0.3-0.7c1.8-6.6,3.6-13.2,5.4-19.8c3.6-13.2,7.1-26.3,10.7-39.5
		c0.3-1.2,0.7-2.5,1-3.7c0-0.2,0.1-0.3,0.3-0.4c0.3,0.3,0.4,0.7,0.6,1c7,14,14.1,28.1,21.1,42.1c3.7,7.4,7.4,14.8,11.1,22.2
		c0.2,0.3,0.3,0.6,0.5,1c0.1,0.1,0.3,0.1,0.3,0c0.2-0.3,0.4-0.6,0.5-0.9c2-4,4-7.9,5.9-11.9c7.1-14.2,14.1-28.4,21.2-42.6
		c1.7-3.4,3.4-6.7,5-10.1c0.1-0.3,0.3-0.6,0.5-0.8c0,0,0.1,0,0.2-0.1c0.1,0.3,0.2,0.6,0.3,0.9c1.5,5.5,3,10.9,4.5,16.4
		c4,14.7,8.1,29.4,12.1,44.2c0.2,0.8,0.5,1.7,0.7,2.5c0.1,0.2,0.3,0.3,0.5,0.3c0.2,0,0.4-0.1,0.6-0.1c4.5-1.2,9-2.4,13.4-3.6
		c0.3-0.1,0.5-0.2,0.8-0.1C562.7,470.8,562.7,470.4,562.7,470z"/>
	<path d="M62.9,311.1c0.1,0.2,0.1,0.4,0.2,0.6c0.6,1.7,1.6,3,3.3,3.8c1,0.5,2.1,0.7,3.2,0.7c1.7,0,3.1-0.6,4.3-1.8
		c0.2-0.2,0.4-0.4,0.6-0.6c0.1-0.1,0.2-0.1,0.3,0c0.1,0.1,0.2,0.3,0.2,0.4c1.6,2.7,3.9,4.4,7.1,4.8c2.9,0.4,5.6-0.2,7.9-2.1
		c2.2-1.8,3.4-4.2,3.3-7.1c-0.1-1.9-0.7-3.7-1.9-5.2c-1.3-1.6-2.9-2.6-4.8-3.2c-1.3-0.4-2.7-0.5-4-0.4c-1.4,0.1-2.7,0.5-4,1.3
		c-1.4,0.9-2.6,2.1-3.5,3.5c-0.1,0.2-0.2,0.4-0.4,0.6c-0.1-0.1-0.2-0.1-0.3-0.2c-0.3-0.2-0.5-0.5-0.8-0.8c-1.4-1.2-3.1-1.7-4.9-1.5
		c-2.6,0.3-4.6,1.6-5.5,4.2c-0.1,0.3-0.2,0.6-0.3,0.9c-0.1,0.2-0.2,0.2-0.4,0.2c0,0.5,0,1,0,1.4C62.7,310.9,62.9,311,62.9,311.1z
		 M78.7,304.6c1.8-1.4,3.9-2,6.2-1.6c1.6,0.3,3.1,0.9,4.3,2c3,2.8,3.1,7.6-0.2,10.5c-1.5,1.3-3.3,2-5.3,1.9c-1.8,0-3.5-0.6-4.9-1.6
		c-1.2-0.9-2-2.1-2.5-3.5C75.4,309.4,76.3,306.4,78.7,304.6z M64.8,309.8c0.5-3.3,3.8-4.8,6.5-3.5c0.7,0.4,1.4,0.8,1.8,1.5
		c0.5,0.7,0.8,1.5,0.7,2.4c-0.1,1.6-0.7,2.8-2.2,3.6c-1.7,0.9-3.3,0.9-4.9-0.1c-1.2-0.8-1.8-2-2-3.4C64.8,310.2,64.8,310,64.8,309.8
		z"/>
	<path d="M63,333.9c0,0.1,0.1,0.2,0.1,0.3c0.9,3,3.8,5,6.9,4.7c1.6-0.1,3-0.7,4.2-1.9c0.2-0.2,0.4-0.4,0.6-0.6
		c0.2,0.3,0.3,0.5,0.5,0.7c1.5,2.4,3.6,4,6.4,4.6c0.9,0.2,1.9,0.2,2.9,0.2c0.9,0,1.8-0.2,2.7-0.6c4-1.4,6.4-5,6.1-9.2
		c-0.1-1.6-0.6-3.1-1.6-4.4c-1.2-1.6-2.7-2.7-4.5-3.4c-1.5-0.5-3-0.7-4.6-0.5c-1.7,0.2-3.2,0.7-4.5,1.7c-1.2,0.9-2.2,1.9-2.9,3.3
		c-0.1,0.2-0.2,0.4-0.4,0.4c0,0-0.1,0-0.1-0.1c-0.1-0.1-0.3-0.3-0.4-0.4c-1.8-1.8-4-2.4-6.4-1.7c-2.3,0.6-3.9,2-4.6,4.3
		c-0.1,0.2-0.1,0.4-0.1,0.6c-0.1,0.2-0.2,0.3-0.4,0.4c0,0.4,0,0.8,0,1.2C62.7,333.5,62.9,333.7,63,333.9z M78.4,327.5
		c1.7-1.3,3.5-2.1,5.6-2c1.8,0.1,3.5,0.7,4.9,1.9c1.6,1.4,2.5,3.2,2.5,5.4c0,2-0.8,3.7-2.2,5.1c-1.9,1.8-4.2,2.5-6.8,2.1
		c-1.2-0.2-2.3-0.6-3.3-1.3c-1.4-0.9-2.3-2.2-2.8-3.8C75.5,332.1,76.2,329.6,78.4,327.5z M64.8,332.5c0.3-1.8,1.3-3.1,3-3.7
		c2.7-0.9,5.1,0.6,5.8,2.8c0.3,0.8,0.3,1.7,0,2.5c-0.6,1.9-2.3,3-4.3,3c-0.4,0-0.9,0-1.4-0.2c-1.8-0.6-2.8-1.9-3.2-3.7
		C64.8,333,64.8,332.7,64.8,332.5z"/>
	<path d="M289.7,369.9c-0.5,0-1,0-1.4,0c-19.8,0-39.7,0-59.5,0c-0.4,0-0.7,0-1.1,0c-0.1,0-0.2,0-0.4,0c-0.2,0-0.3,0.2-0.3,0.3
		c0,0.4,0,0.9,0,1.3c0,16.6,0,33.1,0,49.7c0,16.5,0,33,0,49.4c0,0.4,0,0.8,0,1.2c0,0.1,0,0.2,0,0.4c0,0.1,0.2,0.3,0.3,0.3
		c0.3,0,0.6,0,0.8,0c4.5,0,9,0,13.6,0c0.3,0,0.6,0,0.8,0c0.1,0,0.3-0.2,0.3-0.3c0-0.4,0-0.9,0-1.3c0-12.5,0-25,0-37.6
		c0-0.4,0-0.7,0-1.1c0-0.2,0-0.3,0-0.5c0-0.2,0.2-0.3,0.3-0.3c0.4,0,0.9,0,1.3,0c13.3,0,26.6,0,40,0c0.9,0,1.8,0,2.8,0
		c0.2,0,0.5,0,0.7,0c0.2,0,0.3-0.2,0.3-0.3c0-0.3,0-0.6,0-0.8c0-4.6,0-9.1,0-13.7c0-0.2,0-0.5,0-0.7c0-0.2-0.2-0.4-0.4-0.4
		c-0.4,0-0.9,0-1.3,0c-13.9,0-27.8,0-41.6,0c-0.3,0-0.6,0-1,0c-1.1,0-1.1,0-1.1-1.1c0-0.2,0-0.4,0-0.6c0-8.7,0-17.4,0-26.2
		c0-2-0.2-1.7,1.7-1.7c14.5,0,29,0,43.6,0c0.4,0,0.7,0,1.1,0c0.2,0,0.3,0,0.5,0c0.1,0,0.3-0.2,0.3-0.3c0-0.2,0-0.3,0-0.5
		c0-4.8,0-9.5,0-14.3c0-0.2,0-0.3,0-0.5C290,370,289.8,369.9,289.7,369.9z"/>
	<path d="M416.8,456.6c-0.4,0-0.9,0-1.3,0c-14.5,0-29,0-43.4,0c-0.4,0-0.8,0-1.2,0c-0.1,0-0.2,0-0.4,0c-0.1,0-0.3-0.2-0.3-0.3
		c0-0.5,0-1,0-1.6c0-27.6,0-55.2,0-82.8c0-0.4,0-0.8,0-1.2c0-0.2,0-0.3,0-0.5c0-0.1-0.2-0.3-0.3-0.3c-0.3,0-0.6,0-0.8,0
		c-4.5,0-9,0-13.6,0c-0.2,0-0.5,0-0.7,0c-0.3,0-0.5,0.2-0.5,0.4c0,0.4,0,0.9,0,1.3c0,16.5,0,33,0,49.6c0,16.5,0,33,0,49.4
		c0,0.4,0,0.8,0,1.2c0,0.1,0,0.2,0,0.4c0,0.1,0.2,0.3,0.3,0.3c0.4,0,0.9,0,1.3,0c19.9,0,39.8,0,59.6,0c0.4,0,0.7,0,1.1,0
		c0.1,0,0.2,0,0.4-0.1c0.1,0,0.2-0.1,0.2-0.2c0-0.3,0.1-0.6,0.1-0.8c0-4.6,0-9.2,0-13.8c0-0.2,0-0.5,0-0.7
		C417.1,456.7,416.9,456.6,416.8,456.6z"/>
	<path d="M328.7,370.2c0-0.1-0.2-0.3-0.3-0.3c-0.3,0-0.6,0-1,0c-4.4,0-8.9,0-13.3,0c-0.3,0-0.6,0-0.8,0c-0.3,0-0.5,0.1-0.5,0.4
		c0,0.4,0,0.9,0,1.3c0,16.5,0,33,0,49.4c0,16.5,0,33,0,49.6c0,0.4,0,0.8,0,1.2c0,0.1,0,0.2,0,0.4c0,0.1,0.2,0.3,0.3,0.3
		c0.4,0,0.7,0,1.1,0c4.4,0,8.7,0,13.1,0c0.3,0,0.6,0,0.8,0c0.4,0,0.6-0.2,0.6-0.6c0-0.4,0-0.9,0-1.3c0-33,0-65.9,0-98.9
		c0-0.4,0-0.8,0-1.2C328.7,370.4,328.7,370.3,328.7,370.2z"/>
	<path d="M445.3,361c0.4,0.6,0.9,1.1,1.3,1.7c0.1,0.1,0.2,0.2,0.3,0.3c0.1,0,0.2-0.1,0.3-0.1c0.8-0.6,1.6-1.2,2.4-1.8
		c0.1,0,0.1-0.1,0.2-0.2c0-0.1,0.1-0.2,0-0.2c-0.1-0.2-0.2-0.3-0.3-0.5c-1.5-2-3-3.9-4.5-5.9c-3.3-4.4-6.7-8.8-10-13.2
		c-0.2-0.3-0.4-0.6-0.6-0.9c-0.1-0.1,0-0.3,0.1-0.3c0.2-0.1,0.5-0.1,0.7-0.2c1.9-0.4,3.7-1,5.4-2c5.4-3,8.7-7.5,9.7-13.7
		c0.3-1.7,0.3-3.5,0.2-5.3c-0.1-1.5-0.3-3-0.8-4.5c-1-3.2-2.8-5.9-5.5-7.9c-2.4-1.8-5.1-3-8-3.7c-2.2-0.5-4.5-0.8-6.8-0.7
		c-5.2,0-10.3,0-15.5,0c-0.3,0-0.6,0-0.8,0c-0.1,0-0.3,0.2-0.3,0.3c0,0.5,0,1,0,1.4c0,16,0,32,0,48c0,2.9,0,5.8,0,8.8
		c0,0.4,0,0.7,0,1.1c0,0.2,0.2,0.4,0.4,0.4c0.6,0,1.3,0,1.9,0c1.6,0,1.5,0.2,1.5-1.5c0-6.1,0-12.2,0-18.4c0-0.4,0-0.7,0-1.1
		c0-0.1,0-0.2,0-0.4c0-0.2,0.2-0.3,0.3-0.3c0.3,0,0.6,0,1,0c3.6,0,7.1,0,10.7,0c0.2,0,0.5,0,0.7,0c0.3,0,0.5,0.1,0.6,0.3
		c0.2,0.3,0.5,0.6,0.7,1C435.5,348.1,440.4,354.5,445.3,361z M429.2,336.5c-3.1,0-6.2,0-9.2,0c-0.9,0-1.8,0-2.6,0
		c-0.2,0-0.4,0-0.6-0.1c-0.1,0-0.1-0.1-0.2-0.2c0-0.1-0.1-0.2-0.1-0.4c0-0.4,0-0.7,0-1.1c0-4.6,0-9.1,0-13.7c0-4.6,0-9.1,0-13.7
		c0-0.4,0-0.7,0-1.1c0-0.4,0.2-0.5,0.5-0.5c0.3,0,0.6,0,1,0c3.5,0,7,0,10.4,0c1.7,0,3.3,0.2,5,0.4c1.2,0.2,2.4,0.4,3.5,0.8
		c1,0.3,2,0.8,3,1.3c1.7,0.9,3,2.1,4.2,3.5c1.1,1.4,1.8,3,2.2,4.7c0.4,1.8,0.4,3.6,0.3,5.4c-0.1,1.3-0.3,2.6-0.7,3.9
		c-0.9,2.8-2.5,5.2-4.8,7c-2.2,1.7-4.6,2.8-7.3,3.3C432.2,336.4,430.7,336.5,429.2,336.5z"/>
	<path d="M227,361.6c0,0.2,0.2,0.4,0.4,0.4c1,0,2,0,3,0c0.2,0,0.4-0.2,0.4-0.4c0-0.4,0-0.8,0-1.2c0-4.7,0-9.4,0-14
		c0-4.6,0-9.3,0-13.9c0-0.4,0-0.8,0-1.2c0-0.1,0.2-0.3,0.3-0.3c0.4,0,0.9,0,1.3,0c11.8,0,23.7,0,35.5,0c0.3,0,0.6,0,1,0
		c0.1,0,0.2,0,0.4,0c0.2,0,0.3,0.2,0.3,0.3c0,0.4,0,0.8,0,1.2c0,9.3,0,18.6,0,28c0,0.4,0,0.8,0,1.2c0,0.2,0.2,0.4,0.4,0.4
		c0.9,0,1.8,0,2.6,0c0.7,0,0.8-0.1,0.8-0.8c0-0.4,0-0.7,0-1.1c0-9.4,0-18.7,0-28.1c0-6,0-12.1,0-18.1c0-3.5,0-7,0-10.4
		c0-0.4,0-0.7,0-1.1c0-0.2-0.2-0.4-0.3-0.4c-1,0-2.1,0-3.1,0c-0.2,0-0.3,0.2-0.3,0.3c0,0.2,0,0.3,0,0.5c0,0.6,0,1.2,0,1.8
		c0,7,0,13.9,0,20.9c0,0.4,0,0.8,0,1.2c0,0.1-0.2,0.3-0.3,0.3c-0.4,0-0.9,0-1.3,0c-11.7,0-23.4,0-35,0c-0.4,0-0.9,0-1.3,0
		c-0.2,0-0.3,0-0.5,0c-0.2,0-0.3-0.2-0.3-0.3c0-0.4,0-0.8,0-1.2c0-7.3,0-14.6,0-22c0-0.4,0-0.8,0-1.2c0-0.1-0.2-0.3-0.3-0.3
		c-1,0-2.1,0-3.1,0c-0.2,0-0.3,0.2-0.3,0.4c0,0.4,0,0.9,0,1.3c0,12.1,0,24.2,0,36.4c0,6.8,0,13.5,0,20.3
		C227,360.8,227,361.2,227,361.6z"/>
	<path d="M342.9,333.4c-1.3-1.1-2.7-1.9-4.3-2.6c-2.7-1.2-5.6-1.8-8.6-2.2c-1.6-0.2-3.2-0.2-4.8-0.2c-1.7,0-3.4-0.2-5-0.5
		c-1.8-0.3-3.5-0.9-5.1-1.6c-1.4-0.6-2.6-1.5-3.6-2.7c-1-1.1-1.6-2.4-1.9-3.8c-0.3-1.1-0.3-2.3-0.2-3.5c0.2-2.2,0.9-4.3,2.3-6.1
		c1.3-1.7,3-2.9,4.9-3.7c2.4-1,5-1.5,7.6-1.6c1.2,0,2.4,0,3.6,0.2c2.3,0.3,4.5,0.9,6.6,1.7c1.1,0.5,2.1,1,3,1.7
		c1.1,0.8,2,1.7,2.8,2.8c0.1,0.1,0.2,0.3,0.3,0.4c0.1,0.1,0.3,0.2,0.4,0.1c0.9-0.5,1.9-1.1,2.8-1.6c0.1,0,0.1-0.1,0.2-0.2
		c0-0.3-0.2-0.4-0.3-0.6c-0.8-1.3-1.9-2.5-3.2-3.4c-1.1-0.9-2.4-1.6-3.7-2.3c-3-1.5-6.2-2.3-9.6-2.6c-3.2-0.3-6.4,0-9.5,0.9
		c-2.4,0.7-4.7,1.8-6.7,3.4c-2,1.6-3.4,3.6-4.4,5.9c-1.1,2.8-1.4,5.7-0.9,8.7c0.5,3.1,2,5.7,4.4,7.7c0.9,0.7,1.9,1.3,2.9,1.9
		c2.5,1.2,5.2,2,7.9,2.3c1.7,0.2,3.3,0.3,5,0.4c1.7,0,3.4,0.1,5,0.4c1.9,0.3,3.8,0.7,5.5,1.5c1.5,0.6,2.9,1.4,4.1,2.4
		c2.3,1.9,3.4,4.4,3.4,7.4c0,1-0.1,2-0.3,3c-0.4,1.9-1.1,3.7-2.4,5.2c-0.3,0.3-0.6,0.7-0.9,1c-2,2.1-4.4,3.6-7.1,4.5
		c-4,1.4-8,1.7-12.2,1c-3.7-0.6-6.9-2.1-9.9-4.3c-1.4-1-2.6-2.3-3.5-3.8c-0.1-0.1-0.1-0.2-0.2-0.3c-0.1-0.1-0.3-0.2-0.4-0.1
		c-1,0.5-1.9,1-2.9,1.5c0,0-0.1,0.1-0.1,0.1c-0.1,0-0.1,0.2-0.1,0.3c0.1,0.2,0.2,0.4,0.3,0.5c1.3,2.1,2.9,3.8,4.9,5.2
		c1.9,1.3,3.9,2.4,6,3.3c3.4,1.3,6.9,1.8,10.6,1.9c2,0,3.9-0.3,5.8-0.7c3.4-0.8,6.5-2.2,9.2-4.3c3.8-3,6.3-6.8,6.8-11.7
		c0.2-1.8,0.1-3.5-0.3-5.2C346.9,337.9,345.3,335.4,342.9,333.4z"/>
	<path d="M479.1,361.7c0.5,0.2,1,0.5,1.5,0.7c1,0.5,1,0.5,1.4-0.6c1.9-4.3,3.9-8.7,5.8-13c1.2-2.7,2.4-5.3,3.6-8
		c0.2-0.4,0.3-0.8,0.6-1.1c0.4-0.1,0.9-0.1,1.4-0.1c7.9,0,15.8,0,23.8,0c2,0,1.5-0.3,2.3,1.5c3,6.8,6.1,13.6,9.1,20.4
		c0.1,0.3,0.3,0.7,0.5,1c0.1,0.2,0.3,0.2,0.4,0.2c1-0.4,2-0.9,2.9-1.3c0.2-0.1,0.2-0.2,0.2-0.4c-0.1-0.3-0.2-0.6-0.4-0.9
		c-8.7-19.4-17.4-38.9-26.2-58.3c-0.1-0.3-0.3-0.7-0.5-1c0-0.1-0.1-0.1-0.2-0.1c-0.1,0-0.2,0-0.2,0.1c-0.2,0.4-0.4,0.8-0.6,1.2
		c-8.2,18.3-16.4,36.7-24.6,55c-0.5,1.1-1,2.2-1.5,3.3C478.1,361.2,478.1,361.2,479.1,361.7z M494.2,334.7c3.6-8,7.1-15.9,10.7-23.9
		c0.1-0.3,0.3-0.5,0.4-0.7c0,0,0.1-0.1,0.1,0c0.1,0,0.2,0,0.2,0.1c0.1,0.2,0.3,0.5,0.4,0.8c3.6,8,7.1,15.9,10.7,23.9
		c0.1,0.3,0.2,0.5,0.3,0.8c0,0.1-0.1,0.2-0.1,0.2c-0.1,0-0.2,0.1-0.2,0.1c-0.4,0-0.7,0-1.1,0c-3.4,0-6.7,0-10.1,0c-3.5,0-7,0-10.4,0
		C493.8,335.8,493.7,335.7,494.2,334.7z"/>
	<path d="M357.9,305.8c0.4,0,0.8,0,1.2,0c5.8,0,11.7,0,17.5,0c0.4,0,0.8,0,1.2,0c0.1,0,0.3,0.2,0.3,0.3c0,0.4,0,0.9,0,1.3
		c0,17.5,0,35,0,52.5c0,0.4,0,0.7,0,1.1c0,0.2,0,0.3,0,0.5c0,0.2,0.2,0.3,0.3,0.3c1,0,1.9,0,2.9,0c0.5,0,0.6-0.1,0.6-0.6
		c0-0.4,0-0.7,0-1.1c0-8.8,0-17.5,0-26.3c0-5.4,0-10.9,0-16.3c0-3.4,0-6.8,0-10.2c0-0.4,0-0.7,0-1.1c0-0.4,0.1-0.5,0.5-0.5
		c0.4,0,0.8,0,1.2,0c5.8,0,11.6,0,17.4,0c0.4,0,0.8,0,1.2,0c0.2,0,0.4-0.2,0.4-0.4c0-1,0-2.1,0-3.1c0-0.2-0.1-0.3-0.3-0.3
		c-0.4,0-0.7,0-1.1,0c-14.1,0-28.2,0-42.4,0c-0.3,0-0.6,0-1,0c-0.3,0-0.5,0.2-0.5,0.4c0,1,0,2,0,3
		C357.5,305.6,357.7,305.8,357.9,305.8z"/>
	<path d="M290.7,302c-1,0-2,0-3,0c-0.2,0-0.4,0.2-0.4,0.4c0,0.4,0,0.9,0,1.3c0,9.4,0,18.8,0,28.2c0,6.1,0,12.2,0,18.4
		c0,3.4,0,6.9,0,10.3c0,0.4,0,0.7,0,1.1c0,0.1,0.2,0.3,0.3,0.3c1,0,2.1,0,3.1,0c0.1,0,0.3-0.2,0.3-0.3c0-0.4,0-0.7,0-1.1
		c0-19.1,0-38.2,0-57.2c0-0.3,0-0.6,0-1C291,302.2,290.9,302,290.7,302z"/>
	<path d="M463.7,361.6c0,0.1,0.2,0.3,0.3,0.3c1,0,2.1,0,3.1,0c0.1,0,0.3-0.2,0.3-0.3c0-0.4,0-0.9,0-1.3c0-9.4,0-18.9,0-28.3
		c0-9.5,0-19,0-28.4c0-0.4,0-0.8,0-1.2c0-0.2-0.2-0.4-0.4-0.4c-1,0-2,0-3,0c-0.2,0-0.4,0.2-0.4,0.4c0,0.4,0,0.9,0,1.3
		c0,18.8,0,37.7,0,56.5c0,0.4,0,0.7,0,1.1C463.6,361.4,463.7,361.5,463.7,361.6z"/>
	<path d="M92.5,432.9c-0.3-0.8-0.6-1.5-1.1-2.1c-1.1-1.7-2.6-2.8-4.4-3.5c-1.3-0.5-2.7-0.5-4.1-0.4c-0.1,0-0.2,0-0.4,0.1
		c-1.7,0.4-3.1,1.4-4.2,2.8c-0.7,0.9-1.1,1.9-1.4,2.9c-0.4,1.3-0.5,2.6-0.5,3.9c0,0.8-0.1,1.6-0.2,2.4c-0.1,1.1-0.4,2.1-0.9,3.1
		c-0.7,1.4-1.8,2.4-3.3,2.7c-1.3,0.2-2.6,0.1-3.8-0.6c-1.3-0.7-2.2-1.8-2.7-3.2c-0.8-2.3-0.8-4.5,0-6.8c0.5-1.5,1.2-2.8,2.5-3.7
		c0.2-0.1,0.2-0.3,0.1-0.5c-0.2-0.3-0.4-0.6-0.6-0.9c-0.1-0.1-0.2-0.1-0.3-0.2c-0.2,0.1-0.4,0.2-0.5,0.3c-0.8,0.5-1.4,1.3-2,2.1
		c-0.9,1.4-1.5,3-1.7,4.7c-0.1,0.5-0.1,1-0.2,1.5c-0.1,0.3,0,0.5,0,0.8c0.1,0.4,0.1,0.8,0.2,1.2c0.2,1.4,0.7,2.6,1.4,3.8
		c2,3.1,5.6,3.9,8.5,3.2c1.9-0.5,3.2-1.6,4-3.3c0.6-1.3,1-2.6,1.1-4c0.1-1.1,0.2-2.2,0.2-3.3c0.1-1.2,0.3-2.3,0.8-3.4
		c0.3-0.7,0.7-1.4,1.2-2c0.6-0.7,1.4-1.2,2.3-1.5c2-0.5,3.8-0.2,5.4,1.1c1.4,1.1,2.3,2.4,2.8,4.1c0.8,2.4,0.7,4.9-0.2,7.3
		c-0.7,1.7-1.7,3.2-3.3,4.2c-0.4,0.2-0.4,0.3-0.2,0.7c0.2,0.3,0.3,0.6,0.5,0.9c0,0.1,0.2,0.1,0.3,0.1c0.2-0.1,0.4-0.2,0.5-0.3
		c1.1-0.8,2-1.7,2.7-2.8c1.1-1.6,1.7-3.4,1.9-5.3c0.1-1,0.2-2.1,0-3.1C93.1,434.7,92.9,433.8,92.5,432.9z"/>
	<path d="M92.9,453.9c0-0.1,0-0.2-0.1-0.2c0-0.1-0.1-0.2-0.2-0.2c-0.5-0.1-1-0.1-1.4,0c-0.1,0-0.1,0.1-0.2,0.2
		c0,0.2-0.1,0.5-0.1,0.7c0,1.4,0,2.8,0,4.2c0,2.3,0,4.6,0,7c0,0.4,0,0.7-0.1,1.1c0,0.1-0.1,0.2-0.2,0.2c-0.2,0-0.5,0-0.7,0
		c-3.5,0-7,0-10.6,0c-0.2,0-0.4,0-0.6,0c-0.3,0-0.4-0.2-0.4-0.5c0-0.4,0-0.7,0-1.1c0-3.3,0-6.6,0-9.8c0-0.4,0-0.7,0-1.1
		c0-0.4-0.1-0.5-0.5-0.5c-0.4,0-0.7,0-1.1,0c-0.1,0-0.3,0.2-0.3,0.3c0,0.4,0,0.7,0,1.1c0,3.4,0,6.7,0,10.1c0,0.4,0,0.7,0,1.1
		c0,0.2-0.2,0.4-0.4,0.4c-0.2,0-0.4,0-0.6,0c-3.1,0-6.2,0-9.2,0c-0.2,0-0.4,0-0.6,0c-0.1,0-0.3-0.2-0.3-0.3c0-0.4,0-0.8,0-1.2
		c0-3.4,0-6.8,0-10.2c0-0.4,0-0.7,0-1.1c0-0.1,0-0.2-0.1-0.3c0-0.1-0.2-0.2-0.3-0.2c-0.4,0-0.7,0-1.1,0c-0.3,0-0.5,0.2-0.5,0.4
		c0,0.3,0,0.6,0,0.8c0,1.8,0,3.6,0,5.4c0,2.4,0,4.8,0,7.2c0,0.3,0,0.6,0,1c0,0.3,0.2,0.4,0.5,0.4c0.4,0,0.7,0,1.1,0
		c4.4,0,8.8,0,13.2,0c4.4,0,8.9,0,13.3,0c1.4,0,1.4,0.1,1.4-1.4c0-4.2,0-8.4,0-12.6C92.9,454.5,92.9,454.2,92.9,453.9z"/>
	<path d="M93.1,355.5c-0.3-0.2-0.6-0.4-0.9-0.5c-4.5-2.4-9-4.8-13.5-7.3c-2.1-1.2-4.4-1.5-6.7-1.3c-0.2,0-0.4,0-0.6,0.1
		c-1.1,0.2-2.1,0.6-3,1.1c-3.3,1.8-5.1,4.5-5.3,8.2c-0.1,2.1,0.5,4.1,1.8,5.8c1.7,2.1,3.9,3.6,6.6,4c3.5,0.6,6.6-0.2,9.2-2.7
		c2.6-2.4,3.5-5.3,2.9-8.8c-0.1-0.6-0.3-1.1-0.5-1.6c0-0.1,0-0.2,0-0.4c0.1,0,0.3,0.1,0.4,0.1c0.3,0.1,0.6,0.3,0.9,0.4
		c2.4,1.3,4.9,2.6,7.3,3.9c0.2,0.1,0.4,0.2,0.7,0.3c0.1,0,0.2,0,0.2-0.1c0.3-0.3,0.6-0.7,0.8-1.2C93.2,355.7,93.1,355.5,93.1,355.5z
		 M78.8,362.1c-2,1.6-4.4,2.2-7,1.7c-2-0.4-3.8-1.3-5.1-2.9c-1.2-1.4-1.8-3-1.8-4.7c0-2.7,1-4.7,3-6.2c1.9-1.5,4.2-2.1,6.6-1.8
		c1.3,0.2,2.6,0.6,3.7,1.3c2,1.3,3.2,3.2,3.5,5.6C82,358,81,360.4,78.8,362.1z"/>
	<path d="M65.7,410.8c-0.1,0-0.3-0.2-0.3-0.3c0-0.4,0-0.7,0-1.1c0-2.3,0-4.6,0-6.8c0-0.4,0-0.7,0-1.1c0-0.2-0.2-0.3-0.3-0.3
		c-0.4,0-0.8,0-1.2,0c-0.1,0-0.3,0.2-0.3,0.3c0,0.3,0,0.6,0,0.8c0,6.3,0,12.6,0,18.8c0,0.2,0,0.4,0,0.6c0,0.1,0,0.2,0,0.2
		c0.1,0.1,0.1,0.2,0.2,0.2c0.1,0,0.3,0,0.5,0c1.1,0,1.1,0,1.1-1.1c0-2.2,0-4.5,0-6.7c0-0.4,0-0.7,0-1.1c0-0.1,0-0.2,0-0.4
		c0-0.1,0.2-0.3,0.3-0.3c0.4,0,0.7,0,1.1,0c4.1,0,8.2,0,12.4,0c4.1,0,8.2,0,12.2,0c0.4,0,0.7,0,1.1,0c0.1,0,0.2,0,0.2-0.1
		c0.1,0,0.1-0.1,0.2-0.2c0.1-0.4,0.1-0.9,0-1.3c0-0.1-0.2-0.2-0.3-0.2c-0.4,0-0.8,0-1.2,0c-6,0-12,0-18,0c-2.2,0-4.4,0-6.6,0
		C66.4,410.9,66.1,410.8,65.7,410.8z"/>
	<path d="M92.9,372c0-0.2,0-0.3,0-0.5c0-0.1-0.2-0.3-0.3-0.3c-0.4,0-0.8,0-1.2,0c-4.4,0-8.8,0-13.2,0c-4.4,0-8.7,0-13.1,0
		c-0.4,0-0.7,0-1.1,0c-0.1,0-0.2,0-0.4,0.1c-0.1,0-0.2,0.1-0.2,0.2c0,0.2-0.1,0.4-0.1,0.6c0,1,0,2,0,3c0,0.8,0,0.9,0.9,0.9
		c0.2,0,0.4,0,0.6,0c0.3,0,0.4-0.2,0.4-0.5c0-0.4,0-0.7,0-1.1c0-0.3,0-0.6,0-1c0-0.2,0.2-0.4,0.4-0.4c0.4,0,0.8,0,1.2,0
		c6.2,0,12.4,0,18.6,0c2.2,0,4.3,0,6.5,0C92.9,373,92.9,373,92.9,372z"/>
	<path d="M91.8,394c-0.6,0-1.2,0.3-1.5,0.9c-0.3,0.6-0.2,1.4,0.3,1.9c0.3,0.3,0.7,0.4,1.4,0.4c-0.2,0,0,0,0.1,0
		c1.1-0.1,1.7-1.3,1.2-2.3C93,394.2,92.5,393.9,91.8,394z"/>
</g>
</svg>
