<?xml version="1.0" encoding="utf-8"?>
<!-- Generator: Adobe Illustrator 17.0.0, SVG Export Plug-In . SVG Version: 6.00 Build 0)  -->
<!DOCTYPE svg PUBLIC "-//W3C//DTD SVG 1.1//EN" "http://www.w3.org/Graphics/SVG/1.1/DTD/svg11.dtd">
<svg version="1.1" id="Capa_1" xmlns="http://www.w3.org/2000/svg" xmlns:xlink="http://www.w3.org/1999/xlink" x="0px" y="0px"
	 width="64px" height="64px" viewBox="0 0 64 64" enable-background="new 0 0 64 64" xml:space="preserve">
<g>
	<path fill="#FFFFFF" d="M52.768,19.257l-5.992,2.767c0,0-1.028,0-2.308,0c-0.229,0-0.447,0.129-0.658,0.314v-3.379
		c0-2.972-2.409-5.38-5.38-5.38H13.995c-2.971,0-5.378,2.408-5.378,5.38v19.523c0,2.971,2.407,5.379,5.378,5.379h0.722h9.273h10.695
		v-2.864c0-1.408,1.146-2.554,2.554-2.554h1.003V37.44c0-1.408,1.146-2.554,2.554-2.554h3.029c0.655,0,1.247,0.255,1.7,0.662h1.25
		c0,0,2.681,1.191,5.992,2.661c3.315,1.469,5.994-2.797,5.994-9.527C58.762,21.945,56.083,17.719,52.768,19.257z"/>
	<path fill="#FFFFFF" d="M43.833,36.386h-3.029c-0.582,0-1.054,0.472-1.054,1.054v2.503h-2.503c-0.582,0-1.054,0.472-1.054,1.054
		v3.029c0,0.582,0.472,1.054,1.054,1.054h2.503v2.503c0,0.582,0.472,1.054,1.054,1.054h3.029c0.582,0,1.054-0.472,1.054-1.054V45.08
		h2.503c0.582,0,1.054-0.472,1.054-1.054v-3.029c0-0.582-0.472-1.054-1.054-1.054h-2.503V37.44
		C44.887,36.857,44.415,36.386,43.833,36.386z"/>
</g>
</svg>
