<!-- Generator: Adobe Illustrator 17.0.0, SVG Export Plug-In  -->
<svg version="1.1"
	 xmlns="http://www.w3.org/2000/svg" xmlns:xlink="http://www.w3.org/1999/xlink" xmlns:a="http://ns.adobe.com/AdobeSVGViewerExtensions/3.0/"
	 x="0px" y="0px" width="500.2px" height="181px" viewBox="0 0 500.2 181" enable-background="new 0 0 500.2 181"
	 xml:space="preserve">
<defs>
</defs>
<g>
	<path d="M153.2,6.8c-0.2-2.5-2-5.3-5.2-6.3c-0.3-0.1-0.6-0.2-0.9-0.3c-0.1,0-0.3-0.1-0.4-0.2C112.5,0,78.3,0,44.2,0
		c-0.1,0.1-0.3,0.2-0.4,0.2c-0.3,0.1-0.7,0.2-1,0.3c-3.5,1.2-5,4.4-5.1,6.8c0,0.4,0,0.8,0,1.2c0,53.6,0,107.2,0,160.8
		c0,0.4,0,0.9,0,1.3c0,0.6,0.1,1.2,0.3,1.8c1.2,3.6,4.4,5.2,6.9,5.3c0.4,0,0.8,0,1.2,0c33,0,65.9,0,98.9,0c0.4,0,0.8,0,1.2,0
		c0.6,0,1.2-0.1,1.8-0.3c3-1,4.8-3.1,5.3-6.2c0.1-0.8,0.1-1.5,0.1-2.3c0-53.3,0-106.6,0-159.9c0-0.3,0-0.6,0-0.8
		C153.2,7.6,153.2,7.2,153.2,6.8z M117.2,73.4c0-0.1,0.2-0.2,0.3-0.1c0.3,0.1,0.7,0.3,1,0.4c5.5,2.6,10.4,6.1,14.8,10.3
		c3.8,3.7,6.9,7.9,9.4,12.5c0.2,0.3,0.4,0.7,0.5,1.1c-0.1,0.1-0.1,0.2-0.2,0.3c-0.2,0.2-0.4,0.4-0.6,0.6c-8,8-16,16-24,24
		c-0.3,0.3-0.5,0.5-0.8,0.7c0,0-0.1,0-0.1,0c-0.1,0-0.1-0.1-0.2-0.2c0-0.3,0-0.6-0.1-0.8c0-3.4-0.1-6.7-0.1-10.1c0-12.5,0-25,0-37.4
		C117.2,74.3,117.2,73.8,117.2,73.4z M76.7,71.8c3-1.1,6-1.9,9.1-2.5c3.3-0.6,6.7-0.9,10-0.8c1.9,0,3.8,0.2,5.6,0.4
		c3,0.3,6,0.9,8.9,1.8c0.3,0.1,0.5,0.2,0.8,0.3c0.1,0,0.1,0.1,0.1,0.2c0,0.1,0,0.2,0.1,0.4c0,0.3,0,0.6,0,1c0,11.2,0,22.4,0,33.6
		c0,0.4,0,0.8,0,1.2c0,0,0,0.1-0.1,0.1c-0.1,0-0.2,0-0.2,0c-0.2-0.1-0.4-0.3-0.5-0.5c-2.9-2.8-5.8-5.7-8.6-8.5
		C93.6,89.9,85.3,81.6,77,73.3c-0.3-0.3-0.6-0.6-0.8-0.9c-0.1-0.1-0.1-0.2-0.2-0.3C76.2,71.9,76.4,71.9,76.7,71.8z M46.1,100.2
		c0.2-0.4,0.3-0.8,0.5-1.2c2.8-5.8,6.6-11,11.2-15.5c3.3-3.2,7-5.9,11.1-8.2c0.3-0.2,0.6-0.3,1-0.5c0.2-0.1,0.3,0,0.4,0.1
		c0.3,0.3,0.6,0.5,0.9,0.8c5.7,5.7,11.3,11.3,17,17c2.2,2.2,4.4,4.4,6.6,6.6c0.3,0.3,0.5,0.5,0.7,0.8c0,0,0.1,0.2,0,0.2
		c0,0.1-0.1,0.1-0.2,0.1c-0.4,0-0.8,0-1.2,0c-6.2,0-12.4,0-18.6,0.1c-1.6,0-3.3,0-4.9,0c-7.7,0-15.4,0-23.2,0c-0.4,0-0.8,0-1.2,0
		C46.2,100.5,46,100.3,46.1,100.2z M45.3,141.1c-0.1,0.1-0.2,0.1-0.3,0.2c-0.2-0.1-0.3-0.3-0.3-0.5c-0.7-1.9-1.3-3.9-1.8-6
		c-0.6-2.5-1-5.1-1.3-7.7c-0.2-2.8-0.3-5.7-0.1-8.5c0.3-3.8,0.9-7.5,1.9-11.2c0.1-0.3,0.2-0.7,0.4-1c0.1,0,0.3-0.1,0.4-0.1
		c0.4,0,0.7,0,1.1,0c11,0,21.9,0,32.9,0c0.4,0,0.9,0,1.3,0.1c0,0,0.1,0.1,0.1,0.2c0,0.1-0.1,0.1-0.1,0.2c-0.1,0.2-0.3,0.3-0.4,0.4
		c-2.8,2.8-5.6,5.7-8.4,8.5c-8.2,8.2-16.3,16.3-24.5,24.5C45.9,140.6,45.6,140.9,45.3,141.1z M72.9,145.2c0,8.9,0,16.6,0,24.2
		c0,1.8,0,1.8-1.5,1c-10-5-17.8-12.5-23.3-22.2c-0.2-0.3-0.3-0.6-0.4-0.9c0-0.1,0-0.2,0-0.2c0-0.1,0.1-0.1,0.1-0.2
		c0.2-0.2,0.4-0.5,0.7-0.7c7.7-7.7,15.5-15.5,23.2-23.2c0.8-0.8,0.9-0.9,1-0.8c0.2,0.4,0.1,0.8,0.1,1.2
		C72.9,131.1,72.8,138.8,72.9,145.2z M112.5,173.2c-3.2,1.1-6.5,1.8-9.9,2.3c-3.5,0.5-7,0.6-10.5,0.4c-4.2-0.2-8.4-1-12.5-2.2
		c-0.2-0.1-0.4-0.1-0.6-0.2c-0.2-0.1-0.3-0.2-0.3-0.4c0-0.4,0-0.8,0-1.2c0-5.4,0-10.9,0-16.3c0-5.4,0-10.7,0-16.1c0-0.4,0-0.7,0-1.1
		c0-0.1,0-0.2,0.1-0.3c0.1-0.1,0.2,0,0.3,0.1c0.2,0.2,0.5,0.4,0.7,0.7c2.8,2.8,5.6,5.5,8.4,8.3c8.2,8.2,16.4,16.4,24.6,24.6
		C113.9,172.8,113.9,172.7,112.5,173.2z M144.1,145.1c-0.2,0.4-0.3,0.7-0.5,1.1c-2.3,4.7-5.3,8.9-8.9,12.7c-4.1,4.4-8.9,8-14.2,10.8
		c-1,0.5-0.9,0.6-1.7-0.2c-7.9-7.9-15.8-15.8-23.7-23.7c-0.2-0.2-0.4-0.4-0.5-0.6c0,0,0-0.2,0.1-0.2c0.2,0,0.4-0.1,0.6-0.1
		c3.2,0,6.4-0.1,9.6-0.1c4.9,0,9.8,0,14.6,0c7.8,0,15.6,0,23.4,0c0.4,0,0.8,0,1.2,0C144.1,144.8,144.2,145,144.1,145.1z
		 M148.6,130.5c-0.4,2.5-1,5-1.7,7.5c-0.1,0.2-0.2,0.5-0.2,0.7c0,0.1-0.1,0.1-0.1,0.2c-0.1,0-0.2,0.1-0.2,0.1c-11.6,0-23.1,0-34.7,0
		c-0.4,0-0.7,0-1.1,0c0-0.1-0.1-0.2-0.1-0.2c0.1-0.2,0.3-0.4,0.5-0.6c1.3-1.4,2.7-2.7,4-4.1c9.9-9.9,19.8-19.8,29.8-29.8
		c0.3-0.3,0.5-0.5,0.8-0.7c0.1-0.1,0.3-0.1,0.4,0.1c0.1,0.2,0.2,0.4,0.3,0.7c1.1,3.1,1.9,6.3,2.4,9.5c0.5,3.1,0.7,6.3,0.7,9.4
		C149.2,125.7,149,128.1,148.6,130.5z"/>
	<path d="M500.2,173.8c-0.1-0.1-0.2-0.2-0.2-0.3c-0.1-0.5-0.2-0.9-0.3-1.4c-0.7-2.7-1.5-5.5-2.3-8.2c-2.9-10.6-5.8-21.3-8.8-31.9
		c-2.6-9.4-5.2-18.9-7.8-28.3c-2.5-8.9-4.9-17.9-7.4-26.8c-0.6-2-1.1-4.1-1.7-6.1c-0.1-0.2-0.1-0.5-0.4-0.6c-0.3,0.3-0.4,0.7-0.6,1
		c-6.3,12.6-12.5,25.1-18.8,37.7c-5.9,11.8-11.8,23.7-17.7,35.5c-0.2,0.4-0.3,0.8-0.7,1.1c-0.5-0.2-0.5-0.7-0.7-1
		c-4.1-8.2-8.2-16.4-12.3-24.6c-8.1-16.2-16.2-32.3-24.3-48.5c-0.1-0.3-0.3-0.6-0.4-0.8c0-0.1-0.1-0.1-0.2-0.2c-0.1,0-0.2,0-0.2,0
		c-0.1,0.4-0.3,0.8-0.4,1.1c-2.4,8.9-4.8,17.8-7.3,26.7c-3.2,11.9-6.5,23.8-9.7,35.7c-2.4,8.7-4.8,17.4-7.1,26.1
		c-1.3,4.6-2.5,9.2-3.7,13.8c-0.2,0.9-0.2,0.8,0.6,1.1c0.1,0,0.2,0.1,0.4,0.1c2.6,0.7,5.2,1.4,7.8,2.1c1.8,0.5,3.6,1,5.3,1.4
		c0.3,0.1,0.6,0.1,0.9,0.2c0.1,0,0.2-0.1,0.2-0.1c0.1-0.2,0.2-0.4,0.3-0.7c1.8-6.6,3.6-13.2,5.4-19.8c3.6-13.2,7.1-26.3,10.7-39.5
		c0.3-1.2,0.7-2.5,1-3.7c0-0.2,0.1-0.3,0.3-0.4c0.3,0.3,0.4,0.7,0.6,1c7,14,14.1,28.1,21.1,42.1c3.7,7.4,7.4,14.8,11.1,22.2
		c0.2,0.3,0.3,0.6,0.5,1c0.1,0.1,0.3,0.1,0.3,0c0.2-0.3,0.4-0.6,0.5-0.9c2-4,4-7.9,5.9-11.9c7.1-14.2,14.1-28.4,21.2-42.6
		c1.7-3.4,3.4-6.7,5-10.1c0.1-0.3,0.3-0.6,0.5-0.8c0,0,0.1,0,0.2-0.1c0.1,0.3,0.2,0.6,0.3,0.9c1.5,5.5,3,10.9,4.5,16.4
		c4,14.7,8.1,29.4,12.1,44.2c0.2,0.8,0.5,1.7,0.7,2.5c0.1,0.2,0.3,0.3,0.5,0.3c0.2,0,0.4-0.1,0.6-0.1c4.5-1.2,9-2.4,13.4-3.6
		c0.3-0.1,0.5-0.2,0.8-0.1C500.2,174.6,500.2,174.2,500.2,173.8z"/>
	<path d="M0.4,14.9c0.1,0.2,0.1,0.4,0.2,0.6c0.6,1.7,1.6,3,3.3,3.8C4.8,19.8,5.9,20,7,20c1.7,0,3.1-0.6,4.3-1.8
		c0.2-0.2,0.4-0.4,0.6-0.6c0.1-0.1,0.2-0.1,0.3,0c0.1,0.1,0.2,0.3,0.2,0.4c1.6,2.7,3.9,4.4,7.1,4.8c2.9,0.4,5.6-0.2,7.9-2.1
		c2.2-1.8,3.4-4.2,3.3-7.1c-0.1-1.9-0.7-3.7-1.9-5.2c-1.3-1.6-2.9-2.6-4.8-3.2c-1.3-0.4-2.7-0.5-4-0.4c-1.4,0.1-2.7,0.5-4,1.3
		c-1.4,0.9-2.6,2.1-3.5,3.5c-0.1,0.2-0.2,0.4-0.4,0.6c-0.1-0.1-0.2-0.1-0.3-0.2c-0.3-0.2-0.5-0.5-0.8-0.8C9.7,8.2,8,7.7,6.2,7.9
		c-2.6,0.3-4.6,1.6-5.5,4.2c-0.1,0.3-0.2,0.6-0.3,0.9c-0.1,0.2-0.2,0.2-0.4,0.2c0,0.5,0,1,0,1.4C0.2,14.7,0.3,14.7,0.4,14.9z
		 M16.1,8.4c1.8-1.4,3.9-2,6.2-1.6c1.6,0.3,3.1,0.9,4.3,2c3,2.8,3.1,7.6-0.2,10.5c-1.5,1.3-3.3,2-5.3,1.9c-1.8,0-3.5-0.6-4.9-1.6
		c-1.2-0.9-2-2.1-2.5-3.5C12.8,13.2,13.8,10.1,16.1,8.4z M2.2,13.6c0.5-3.3,3.8-4.8,6.5-3.5c0.7,0.4,1.4,0.8,1.8,1.5
		c0.5,0.7,0.8,1.5,0.7,2.4c-0.1,1.6-0.7,2.8-2.2,3.6c-1.7,0.9-3.3,0.9-4.9-0.1c-1.2-0.8-1.8-2-2-3.4C2.2,13.9,2.2,13.8,2.2,13.6z"/>
	<path d="M0.4,37.6c0,0.1,0.1,0.2,0.1,0.3c0.9,3,3.8,5,6.9,4.7c1.6-0.1,3-0.7,4.2-1.9c0.2-0.2,0.4-0.4,0.6-0.6
		c0.2,0.3,0.3,0.5,0.5,0.7c1.5,2.4,3.6,4,6.4,4.6c0.9,0.2,1.9,0.2,2.9,0.2c0.9,0,1.8-0.2,2.7-0.6c4-1.4,6.4-5,6.1-9.2
		c-0.1-1.6-0.6-3.1-1.6-4.4c-1.2-1.6-2.7-2.7-4.5-3.4c-1.5-0.5-3-0.7-4.6-0.5c-1.7,0.2-3.2,0.7-4.5,1.7c-1.2,0.9-2.2,1.9-2.9,3.3
		c-0.1,0.2-0.2,0.4-0.4,0.4c0,0-0.1,0-0.1-0.1c-0.1-0.1-0.3-0.3-0.4-0.4c-1.8-1.8-4-2.4-6.4-1.7c-2.3,0.6-3.9,2-4.6,4.3
		c-0.1,0.2-0.1,0.4-0.1,0.6C0.4,35.8,0.2,35.9,0,36c0,0.4,0,0.8,0,1.2C0.2,37.3,0.3,37.4,0.4,37.6z M15.8,31.3
		c1.7-1.3,3.5-2.1,5.6-2c1.8,0.1,3.5,0.7,4.9,1.9c1.6,1.4,2.5,3.2,2.5,5.4c0,2-0.8,3.7-2.2,5.1c-1.9,1.8-4.2,2.5-6.8,2.1
		c-1.2-0.2-2.3-0.6-3.3-1.3c-1.4-0.9-2.3-2.2-2.8-3.8C12.9,35.8,13.6,33.3,15.8,31.3z M2.3,36.2c0.3-1.8,1.3-3.1,3-3.7
		c2.7-0.9,5.1,0.6,5.8,2.8c0.3,0.8,0.3,1.7,0,2.5c-0.6,1.9-2.3,3-4.3,3c-0.4,0-0.9,0-1.4-0.2c-1.8-0.6-2.8-1.9-3.2-3.7
		C2.2,36.7,2.2,36.5,2.3,36.2z"/>
	<path d="M227.1,73.6c-0.5,0-1,0-1.4,0c-19.8,0-39.7,0-59.5,0c-0.4,0-0.7,0-1.1,0c-0.1,0-0.2,0-0.4,0c-0.2,0-0.3,0.2-0.3,0.3
		c0,0.4,0,0.9,0,1.3c0,16.6,0,33.1,0,49.7c0,16.5,0,33,0,49.4c0,0.4,0,0.8,0,1.2c0,0.1,0,0.2,0,0.4c0,0.1,0.2,0.3,0.3,0.3
		c0.3,0,0.6,0,0.8,0c4.5,0,9,0,13.6,0c0.3,0,0.6,0,0.8,0c0.1,0,0.3-0.2,0.3-0.3c0-0.4,0-0.9,0-1.3c0-12.5,0-25,0-37.6
		c0-0.4,0-0.7,0-1.1c0-0.2,0-0.3,0-0.5c0-0.2,0.2-0.3,0.3-0.3c0.4,0,0.9,0,1.3,0c13.3,0,26.6,0,40,0c0.9,0,1.8,0,2.8,0
		c0.2,0,0.5,0,0.7,0c0.2,0,0.3-0.2,0.3-0.3c0-0.3,0-0.6,0-0.8c0-4.6,0-9.1,0-13.7c0-0.2,0-0.5,0-0.7c0-0.2-0.2-0.4-0.4-0.4
		c-0.4,0-0.9,0-1.3,0c-13.9,0-27.8,0-41.6,0c-0.3,0-0.6,0-1,0c-1.1,0-1.1,0-1.1-1.1c0-0.2,0-0.4,0-0.6c0-8.7,0-17.4,0-26.2
		c0-2-0.2-1.7,1.7-1.7c14.5,0,29,0,43.6,0c0.4,0,0.7,0,1.1,0c0.2,0,0.3,0,0.5,0c0.1,0,0.3-0.2,0.3-0.3c0-0.2,0-0.3,0-0.5
		c0-4.8,0-9.5,0-14.3c0-0.2,0-0.3,0-0.5C227.5,73.8,227.3,73.6,227.1,73.6z"/>
	<path d="M354.2,160.3c-0.4,0-0.9,0-1.3,0c-14.5,0-29,0-43.4,0c-0.4,0-0.8,0-1.2,0c-0.1,0-0.2,0-0.4,0c-0.1,0-0.3-0.2-0.3-0.3
		c0-0.5,0-1,0-1.6c0-27.6,0-55.2,0-82.8c0-0.4,0-0.8,0-1.2c0-0.2,0-0.3,0-0.5c0-0.1-0.2-0.3-0.3-0.3c-0.3,0-0.6,0-0.8,0
		c-4.5,0-9,0-13.6,0c-0.2,0-0.5,0-0.7,0c-0.3,0-0.5,0.2-0.5,0.4c0,0.4,0,0.9,0,1.3c0,16.5,0,33,0,49.6c0,16.5,0,33,0,49.4
		c0,0.4,0,0.8,0,1.2c0,0.1,0,0.2,0,0.4c0,0.1,0.2,0.3,0.3,0.3c0.4,0,0.9,0,1.3,0c19.9,0,39.8,0,59.6,0c0.4,0,0.7,0,1.1,0
		c0.1,0,0.2,0,0.4-0.1c0.1,0,0.2-0.1,0.2-0.2c0-0.3,0.1-0.6,0.1-0.8c0-4.6,0-9.2,0-13.8c0-0.2,0-0.5,0-0.7
		C354.5,160.5,354.4,160.4,354.2,160.3z"/>
	<path d="M266.1,73.9c0-0.1-0.2-0.3-0.3-0.3c-0.3,0-0.6,0-1,0c-4.4,0-8.9,0-13.3,0c-0.3,0-0.6,0-0.8,0c-0.3,0-0.5,0.1-0.5,0.4
		c0,0.4,0,0.9,0,1.3c0,16.5,0,33,0,49.4c0,16.5,0,33,0,49.6c0,0.4,0,0.8,0,1.2c0,0.1,0,0.2,0,0.4c0,0.1,0.2,0.3,0.3,0.3
		c0.4,0,0.7,0,1.1,0c4.4,0,8.7,0,13.1,0c0.3,0,0.6,0,0.8,0c0.4,0,0.6-0.2,0.6-0.6c0-0.4,0-0.9,0-1.3c0-33,0-65.9,0-98.9
		c0-0.4,0-0.8,0-1.2C266.1,74.2,266.1,74,266.1,73.9z"/>
	<path d="M382.7,64.7c0.4,0.6,0.9,1.1,1.3,1.7c0.1,0.1,0.2,0.2,0.3,0.3c0.1,0,0.2-0.1,0.3-0.1c0.8-0.6,1.6-1.2,2.4-1.8
		c0.1,0,0.1-0.1,0.2-0.2c0-0.1,0.1-0.2,0-0.2c-0.1-0.2-0.2-0.3-0.3-0.5c-1.5-2-3-3.9-4.5-5.9c-3.3-4.4-6.7-8.8-10-13.2
		c-0.2-0.3-0.4-0.6-0.6-0.9c-0.1-0.1,0-0.3,0.1-0.3c0.2-0.1,0.5-0.1,0.7-0.2c1.9-0.4,3.7-1,5.4-2c5.4-3,8.7-7.5,9.7-13.7
		c0.3-1.7,0.3-3.5,0.2-5.3c-0.1-1.5-0.3-3-0.8-4.5c-1-3.2-2.8-5.9-5.5-7.9c-2.4-1.8-5.1-3-8-3.7c-2.2-0.5-4.5-0.8-6.8-0.7
		c-5.2,0-10.3,0-15.5,0c-0.3,0-0.6,0-0.8,0c-0.1,0-0.3,0.2-0.3,0.3c0,0.5,0,1,0,1.4c0,16,0,32,0,48c0,2.9,0,5.8,0,8.8
		c0,0.4,0,0.7,0,1.1c0,0.2,0.2,0.4,0.4,0.4c0.6,0,1.3,0,1.9,0c1.6,0,1.5,0.2,1.5-1.5c0-6.1,0-12.2,0-18.4c0-0.4,0-0.7,0-1.1
		c0-0.1,0-0.2,0-0.4c0-0.2,0.2-0.3,0.3-0.3c0.3,0,0.6,0,1,0c3.6,0,7.1,0,10.7,0c0.2,0,0.5,0,0.7,0c0.3,0,0.5,0.1,0.6,0.3
		c0.2,0.3,0.5,0.6,0.7,1C372.9,51.8,377.8,58.3,382.7,64.7z M366.6,40.2c-3.1,0-6.2,0-9.2,0c-0.9,0-1.8,0-2.6,0
		c-0.2,0-0.4,0-0.6-0.1c-0.1,0-0.1-0.1-0.2-0.2c0-0.1-0.1-0.2-0.1-0.4c0-0.4,0-0.7,0-1.1c0-4.6,0-9.1,0-13.7c0-4.6,0-9.1,0-13.7
		c0-0.4,0-0.7,0-1.1c0-0.4,0.2-0.5,0.5-0.5c0.3,0,0.6,0,1,0c3.5,0,7,0,10.4,0c1.7,0,3.3,0.2,5,0.4c1.2,0.2,2.4,0.4,3.5,0.8
		c1,0.3,2,0.8,3,1.3c1.7,0.9,3,2.1,4.2,3.5c1.1,1.4,1.8,3,2.2,4.7c0.4,1.8,0.4,3.6,0.3,5.4c-0.1,1.3-0.3,2.6-0.7,3.9
		c-0.9,2.8-2.5,5.2-4.8,7c-2.2,1.7-4.6,2.8-7.3,3.3C369.7,40.1,368.1,40.2,366.6,40.2z"/>
	<path d="M164.5,65.3c0,0.2,0.2,0.4,0.4,0.4c1,0,2,0,3,0c0.2,0,0.4-0.2,0.4-0.4c0-0.4,0-0.8,0-1.2c0-4.7,0-9.4,0-14
		c0-4.6,0-9.3,0-13.9c0-0.4,0-0.8,0-1.2c0-0.1,0.2-0.3,0.3-0.3c0.4,0,0.9,0,1.3,0c11.8,0,23.7,0,35.5,0c0.3,0,0.6,0,1,0
		c0.1,0,0.2,0,0.4,0c0.2,0,0.3,0.2,0.3,0.3c0,0.4,0,0.8,0,1.2c0,9.3,0,18.6,0,28c0,0.4,0,0.8,0,1.2c0,0.2,0.2,0.4,0.4,0.4
		c0.9,0,1.8,0,2.6,0c0.7,0,0.8-0.1,0.8-0.8c0-0.4,0-0.7,0-1.1c0-9.4,0-18.7,0-28.1c0-6,0-12.1,0-18.1c0-3.5,0-7,0-10.4
		c0-0.4,0-0.7,0-1.1c0-0.2-0.2-0.4-0.3-0.4c-1,0-2.1,0-3.1,0c-0.2,0-0.3,0.2-0.3,0.3c0,0.2,0,0.3,0,0.5c0,0.6,0,1.2,0,1.8
		c0,7,0,13.9,0,20.9c0,0.4,0,0.8,0,1.2c0,0.1-0.2,0.3-0.3,0.3c-0.4,0-0.9,0-1.3,0c-11.7,0-23.4,0-35,0c-0.4,0-0.9,0-1.3,0
		c-0.2,0-0.3,0-0.5,0c-0.2,0-0.3-0.2-0.3-0.3c0-0.4,0-0.8,0-1.2c0-7.3,0-14.6,0-22c0-0.4,0-0.8,0-1.2c0-0.1-0.2-0.3-0.3-0.3
		c-1,0-2.1,0-3.1,0c-0.2,0-0.3,0.2-0.3,0.4c0,0.4,0,0.9,0,1.3c0,12.1,0,24.2,0,36.4c0,6.8,0,13.5,0,20.3
		C164.4,64.5,164.4,64.9,164.5,65.3z"/>
	<path d="M280.3,37.2c-1.3-1.1-2.7-1.9-4.3-2.6c-2.7-1.2-5.6-1.8-8.6-2.2c-1.6-0.2-3.2-0.2-4.8-0.2c-1.7,0-3.4-0.2-5-0.5
		c-1.8-0.3-3.5-0.9-5.1-1.6c-1.4-0.6-2.6-1.5-3.6-2.7c-1-1.1-1.6-2.4-1.9-3.8c-0.3-1.1-0.3-2.3-0.2-3.5c0.2-2.2,0.9-4.3,2.3-6.1
		c1.3-1.7,3-2.9,4.9-3.7c2.4-1,5-1.5,7.6-1.6c1.2,0,2.4,0,3.6,0.2c2.3,0.3,4.5,0.9,6.6,1.7c1.1,0.5,2.1,1,3,1.7
		c1.1,0.8,2,1.7,2.8,2.8c0.1,0.1,0.2,0.3,0.3,0.4c0.1,0.1,0.3,0.2,0.4,0.1c0.9-0.5,1.9-1.1,2.8-1.6c0.1,0,0.1-0.1,0.2-0.2
		c0-0.3-0.2-0.4-0.3-0.6c-0.8-1.3-1.9-2.5-3.2-3.4c-1.1-0.9-2.4-1.6-3.7-2.3c-3-1.5-6.2-2.3-9.6-2.6c-3.2-0.3-6.4,0-9.5,0.9
		c-2.4,0.7-4.7,1.8-6.7,3.4c-2,1.6-3.4,3.6-4.4,5.9c-1.1,2.8-1.4,5.7-0.9,8.7c0.5,3.1,2,5.7,4.4,7.7c0.9,0.7,1.9,1.3,2.9,1.9
		c2.5,1.2,5.2,2,7.9,2.3c1.7,0.2,3.3,0.3,5,0.4c1.7,0,3.4,0.1,5,0.4c1.9,0.3,3.8,0.7,5.5,1.5c1.5,0.6,2.9,1.4,4.1,2.4
		c2.3,1.9,3.4,4.4,3.4,7.4c0,1-0.1,2-0.3,3c-0.4,1.9-1.1,3.7-2.4,5.2c-0.3,0.3-0.6,0.7-0.9,1c-2,2.1-4.4,3.6-7.1,4.5
		c-4,1.4-8,1.7-12.2,1c-3.7-0.6-6.9-2.1-9.9-4.3c-1.4-1-2.6-2.3-3.5-3.8c-0.1-0.1-0.1-0.2-0.2-0.3c-0.1-0.1-0.3-0.2-0.4-0.1
		c-1,0.5-1.9,1-2.9,1.5c0,0-0.1,0.1-0.1,0.1c-0.1,0-0.1,0.2-0.1,0.3c0.1,0.2,0.2,0.4,0.3,0.5c1.3,2.1,2.9,3.8,4.9,5.2
		c1.9,1.3,3.9,2.4,6,3.3c3.4,1.3,6.9,1.8,10.6,1.9c2,0,3.9-0.3,5.8-0.7c3.4-0.8,6.5-2.2,9.2-4.3c3.8-3,6.3-6.8,6.8-11.7
		c0.2-1.8,0.1-3.5-0.3-5.2C284.3,41.7,282.7,39.2,280.3,37.2z"/>
	<path d="M416.5,65.4c0.5,0.2,1,0.5,1.5,0.7c1,0.5,1,0.5,1.4-0.6c1.9-4.3,3.9-8.7,5.8-13c1.2-2.7,2.4-5.3,3.6-8
		c0.2-0.4,0.3-0.8,0.6-1.1c0.4-0.1,0.9-0.1,1.4-0.1c7.9,0,15.8,0,23.8,0c2,0,1.5-0.3,2.3,1.5c3,6.8,6.1,13.6,9.1,20.4
		c0.1,0.3,0.3,0.7,0.5,1c0.1,0.2,0.3,0.2,0.4,0.2c1-0.4,2-0.9,2.9-1.3c0.2-0.1,0.2-0.2,0.2-0.4c-0.1-0.3-0.2-0.6-0.4-0.9
		c-8.7-19.4-17.4-38.9-26.2-58.3c-0.1-0.3-0.3-0.7-0.5-1c0-0.1-0.1-0.1-0.2-0.1c-0.1,0-0.2,0-0.2,0.1c-0.2,0.4-0.4,0.8-0.6,1.2
		c-8.2,18.3-16.4,36.7-24.6,55c-0.5,1.1-1,2.2-1.5,3.3C415.6,65,415.5,64.9,416.5,65.4z M431.6,38.4c3.6-8,7.1-15.9,10.7-23.9
		c0.1-0.3,0.3-0.5,0.4-0.7c0,0,0.1-0.1,0.1,0c0.1,0,0.2,0,0.2,0.1c0.1,0.2,0.3,0.5,0.4,0.8c3.6,8,7.1,15.9,10.7,23.9
		c0.1,0.3,0.2,0.5,0.3,0.8c0,0.1-0.1,0.2-0.1,0.2c-0.1,0-0.2,0.1-0.2,0.1c-0.4,0-0.7,0-1.1,0c-3.4,0-6.7,0-10.1,0c-3.5,0-7,0-10.4,0
		C431.2,39.5,431.1,39.5,431.6,38.4z"/>
	<path d="M295.3,9.6c0.4,0,0.8,0,1.2,0c5.8,0,11.7,0,17.5,0c0.4,0,0.8,0,1.2,0c0.1,0,0.3,0.2,0.3,0.3c0,0.4,0,0.9,0,1.3
		c0,17.5,0,35,0,52.5c0,0.4,0,0.7,0,1.1c0,0.2,0,0.3,0,0.5c0,0.2,0.2,0.3,0.3,0.3c1,0,1.9,0,2.9,0c0.5,0,0.6-0.1,0.6-0.6
		c0-0.4,0-0.7,0-1.1c0-8.8,0-17.5,0-26.3c0-5.4,0-10.9,0-16.3c0-3.4,0-6.8,0-10.2c0-0.4,0-0.7,0-1.1c0-0.4,0.1-0.5,0.5-0.5
		c0.4,0,0.8,0,1.2,0c5.8,0,11.6,0,17.4,0c0.4,0,0.8,0,1.2,0c0.2,0,0.4-0.2,0.4-0.4c0-1,0-2.1,0-3.1c0-0.2-0.1-0.3-0.3-0.3
		c-0.4,0-0.7,0-1.1,0c-14.1,0-28.2,0-42.4,0c-0.3,0-0.6,0-1,0c-0.3,0-0.5,0.2-0.5,0.4c0,1,0,2,0,3C295,9.4,295.1,9.6,295.3,9.6z"/>
	<path d="M228.1,5.8c-1,0-2,0-3,0c-0.2,0-0.4,0.2-0.4,0.4c0,0.4,0,0.9,0,1.3c0,9.4,0,18.8,0,28.2c0,6.1,0,12.2,0,18.4
		c0,3.4,0,6.9,0,10.3c0,0.4,0,0.7,0,1.1c0,0.1,0.2,0.3,0.3,0.3c1,0,2.1,0,3.1,0c0.1,0,0.3-0.2,0.3-0.3c0-0.4,0-0.7,0-1.1
		c0-19.1,0-38.2,0-57.2c0-0.3,0-0.6,0-1C228.5,5.9,228.3,5.8,228.1,5.8z"/>
	<path d="M401.1,65.4c0,0.1,0.2,0.3,0.3,0.3c1,0,2.1,0,3.1,0c0.1,0,0.3-0.2,0.3-0.3c0-0.4,0-0.9,0-1.3c0-9.4,0-18.9,0-28.3
		c0-9.5,0-19,0-28.4c0-0.4,0-0.8,0-1.2c0-0.2-0.2-0.4-0.4-0.4c-1,0-2,0-3,0c-0.2,0-0.4,0.2-0.4,0.4c0,0.4,0,0.9,0,1.3
		c0,18.8,0,37.7,0,56.5c0,0.4,0,0.7,0,1.1C401.1,65.2,401.1,65.3,401.1,65.4z"/>
	<path d="M30,136.6c-0.3-0.8-0.6-1.5-1.1-2.1c-1.1-1.7-2.6-2.8-4.4-3.5c-1.3-0.5-2.7-0.5-4.1-0.4c-0.1,0-0.2,0-0.4,0.1
		c-1.7,0.4-3.1,1.4-4.2,2.8c-0.7,0.9-1.1,1.9-1.4,2.9c-0.4,1.3-0.5,2.6-0.5,3.9c0,0.8-0.1,1.6-0.2,2.4c-0.1,1.1-0.4,2.1-0.9,3.1
		c-0.7,1.4-1.8,2.4-3.3,2.7c-1.3,0.2-2.6,0.1-3.8-0.6c-1.3-0.7-2.2-1.8-2.7-3.2c-0.8-2.3-0.8-4.5,0-6.8c0.5-1.5,1.2-2.8,2.5-3.7
		c0.2-0.1,0.2-0.3,0.1-0.5c-0.2-0.3-0.4-0.6-0.6-0.9c-0.1-0.1-0.2-0.1-0.3-0.2c-0.2,0.1-0.4,0.2-0.5,0.3c-0.8,0.5-1.4,1.3-2,2.1
		c-0.9,1.4-1.5,3-1.7,4.7c-0.1,0.5-0.1,1-0.2,1.5c-0.1,0.3,0,0.5,0,0.8c0.1,0.4,0.1,0.8,0.2,1.2c0.2,1.4,0.7,2.6,1.4,3.8
		c2,3.1,5.6,3.9,8.5,3.2c1.9-0.5,3.2-1.6,4-3.3c0.6-1.3,1-2.6,1.1-4c0.1-1.1,0.2-2.2,0.2-3.3c0.1-1.2,0.3-2.3,0.8-3.4
		c0.3-0.7,0.7-1.4,1.2-2c0.6-0.7,1.4-1.2,2.3-1.5c2-0.5,3.8-0.2,5.4,1.1c1.4,1.1,2.3,2.4,2.8,4.1c0.8,2.4,0.7,4.9-0.2,7.3
		c-0.7,1.7-1.7,3.2-3.3,4.2c-0.4,0.2-0.4,0.3-0.2,0.7c0.2,0.3,0.3,0.6,0.5,0.9c0,0.1,0.2,0.1,0.3,0.1c0.2-0.1,0.4-0.2,0.5-0.3
		c1.1-0.8,2-1.7,2.7-2.8c1.1-1.6,1.7-3.4,1.9-5.3c0.1-1,0.2-2.1,0-3.1C30.5,138.5,30.3,137.5,30,136.6z"/>
	<path d="M30.3,157.7c0-0.1,0-0.2-0.1-0.2c0-0.1-0.1-0.2-0.2-0.2c-0.5-0.1-1-0.1-1.4,0c-0.1,0-0.1,0.1-0.2,0.2
		c0,0.2-0.1,0.5-0.1,0.7c0,1.4,0,2.8,0,4.2c0,2.3,0,4.6,0,7c0,0.4,0,0.7-0.1,1.1c0,0.1-0.1,0.2-0.2,0.2c-0.2,0-0.5,0-0.7,0
		c-3.5,0-7,0-10.6,0c-0.2,0-0.4,0-0.6,0c-0.3,0-0.4-0.2-0.4-0.5c0-0.4,0-0.7,0-1.1c0-3.3,0-6.6,0-9.8c0-0.4,0-0.7,0-1.1
		c0-0.4-0.1-0.5-0.5-0.5c-0.4,0-0.7,0-1.1,0c-0.1,0-0.3,0.2-0.3,0.3c0,0.4,0,0.7,0,1.1c0,3.4,0,6.7,0,10.1c0,0.4,0,0.7,0,1.1
		c0,0.2-0.2,0.4-0.4,0.4c-0.2,0-0.4,0-0.6,0c-3.1,0-6.2,0-9.2,0c-0.2,0-0.4,0-0.6,0c-0.1,0-0.3-0.2-0.3-0.3c0-0.4,0-0.8,0-1.2
		c0-3.4,0-6.8,0-10.2c0-0.4,0-0.7,0-1.1c0-0.1,0-0.2-0.1-0.3c0-0.1-0.2-0.2-0.3-0.2c-0.4,0-0.7,0-1.1,0c-0.3,0-0.5,0.2-0.5,0.4
		c0,0.3,0,0.6,0,0.8c0,1.8,0,3.6,0,5.4c0,2.4,0,4.8,0,7.2c0,0.3,0,0.6,0,1c0,0.3,0.2,0.4,0.5,0.4c0.4,0,0.7,0,1.1,0
		c4.4,0,8.8,0,13.2,0c4.4,0,8.9,0,13.3,0c1.4,0,1.4,0.1,1.4-1.4c0-4.2,0-8.4,0-12.6C30.3,158.2,30.3,158,30.3,157.7z"/>
	<path d="M30.5,59.3c-0.3-0.2-0.6-0.4-0.9-0.5c-4.5-2.4-9-4.8-13.5-7.3c-2.1-1.2-4.4-1.5-6.7-1.3c-0.2,0-0.4,0-0.6,0.1
		c-1.1,0.2-2.1,0.6-3,1.1c-3.3,1.8-5.1,4.5-5.3,8.2c-0.1,2.1,0.5,4.1,1.8,5.8c1.7,2.1,3.9,3.6,6.6,4c3.5,0.6,6.6-0.2,9.2-2.7
		c2.6-2.4,3.5-5.3,2.9-8.8c-0.1-0.6-0.3-1.1-0.5-1.6c0-0.1,0-0.2,0-0.4c0.1,0,0.3,0.1,0.4,0.1c0.3,0.1,0.6,0.3,0.9,0.4
		c2.4,1.3,4.9,2.6,7.3,3.9c0.2,0.1,0.4,0.2,0.7,0.3c0.1,0,0.2,0,0.2-0.1c0.3-0.3,0.6-0.7,0.8-1.2C30.6,59.4,30.6,59.3,30.5,59.3z
		 M16.2,65.9c-2,1.6-4.4,2.2-7,1.7c-2-0.4-3.8-1.3-5.1-2.9c-1.2-1.4-1.8-3-1.8-4.7c0-2.7,1-4.7,3-6.2c1.9-1.5,4.2-2.1,6.6-1.8
		c1.3,0.2,2.6,0.6,3.7,1.3c2,1.3,3.2,3.2,3.5,5.6C19.5,61.8,18.4,64.2,16.2,65.9z"/>
	<path d="M3.1,114.6c-0.1,0-0.3-0.2-0.3-0.3c0-0.4,0-0.7,0-1.1c0-2.3,0-4.6,0-6.8c0-0.4,0-0.7,0-1.1c0-0.2-0.2-0.3-0.3-0.3
		c-0.4,0-0.8,0-1.2,0c-0.1,0-0.3,0.2-0.3,0.3c0,0.3,0,0.6,0,0.8c0,6.3,0,12.6,0,18.8c0,0.2,0,0.4,0,0.6c0,0.1,0,0.2,0,0.2
		c0.1,0.1,0.1,0.2,0.2,0.2c0.1,0,0.3,0,0.5,0c1.1,0,1.1,0,1.1-1.1c0-2.2,0-4.5,0-6.7c0-0.4,0-0.7,0-1.1c0-0.1,0-0.2,0-0.4
		c0-0.1,0.2-0.3,0.3-0.3c0.4,0,0.7,0,1.1,0c4.1,0,8.2,0,12.4,0c4.1,0,8.2,0,12.2,0c0.4,0,0.7,0,1.1,0c0.1,0,0.2,0,0.2-0.1
		c0.1,0,0.1-0.1,0.2-0.2c0.1-0.4,0.1-0.9,0-1.3c0-0.1-0.2-0.2-0.3-0.2c-0.4,0-0.8,0-1.2,0c-6,0-12,0-18,0c-2.2,0-4.4,0-6.6,0
		C3.8,114.6,3.5,114.6,3.1,114.6z"/>
	<path d="M30.3,75.8c0-0.2,0-0.3,0-0.5c0-0.1-0.2-0.3-0.3-0.3c-0.4,0-0.8,0-1.2,0c-4.4,0-8.8,0-13.2,0c-4.4,0-8.7,0-13.1,0
		c-0.4,0-0.7,0-1.1,0c-0.1,0-0.2,0-0.4,0.1c-0.1,0-0.2,0.1-0.2,0.2c0,0.2-0.1,0.4-0.1,0.6c0,1,0,2,0,3c0,0.8,0,0.9,0.9,0.9
		c0.2,0,0.4,0,0.6,0c0.3,0,0.4-0.2,0.4-0.5c0-0.4,0-0.7,0-1.1c0-0.3,0-0.6,0-1c0-0.2,0.2-0.4,0.4-0.4c0.4,0,0.8,0,1.2,0
		c6.2,0,12.4,0,18.6,0c2.2,0,4.3,0,6.5,0C30.3,76.8,30.3,76.7,30.3,75.8z"/>
	<path d="M29.3,97.7c-0.6,0-1.2,0.3-1.5,0.9c-0.3,0.6-0.2,1.4,0.3,1.9c0.3,0.3,0.7,0.4,1.4,0.4c-0.2,0,0,0,0.1,0
		c1.1-0.1,1.7-1.3,1.2-2.3C30.4,98,29.9,97.7,29.3,97.7z"/>
</g>
</svg>