<?xml version="1.0" encoding="utf-8"?>
<!-- Generator: Adobe Illustrator 17.0.0, SVG Export Plug-In . SVG Version: 6.00 Build 0)  -->
<!DOCTYPE svg PUBLIC "-//W3C//DTD SVG 1.1//EN" "http://www.w3.org/Graphics/SVG/1.1/DTD/svg11.dtd">
<svg version="1.1" id="Capa_1" xmlns="http://www.w3.org/2000/svg" xmlns:xlink="http://www.w3.org/1999/xlink" x="0px" y="0px"
	 width="64px" height="64px" viewBox="0 0 64 64" enable-background="new 0 0 64 64" xml:space="preserve">
<g>
	<rect x="35.75" y="34.042" fill="#FFFFFF" width="3.047" height="1.882"/>
	<rect x="35.84" y="20.288" fill="#FFFFFF" width="3.047" height="1.882"/>
	<rect x="30.732" y="20.288" fill="#FFFFFF" width="3.047" height="1.882"/>
	<path fill="#FFFFFF" d="M34.453,27.122l-4.574-2.288c-1.062-0.531-1.924,0.001-1.924,1.189v4.12c0,1.188,0.861,1.72,1.924,1.189
		l4.574-2.288C35.516,28.514,35.516,27.653,34.453,27.122z"/>
	<rect x="30.644" y="34.042" fill="#FFFFFF" width="3.045" height="1.882"/>
	<rect x="40.947" y="20.288" fill="#FFFFFF" width="3.047" height="1.882"/>
	<rect x="40.857" y="34.042" fill="#FFFFFF" width="3.047" height="1.882"/>
	<rect x="25.625" y="20.288" fill="#FFFFFF" width="3.047" height="1.882"/>
	<rect x="20.428" y="34.042" fill="#FFFFFF" width="3.047" height="1.882"/>
	<rect x="20.518" y="20.288" fill="#FFFFFF" width="3.047" height="1.882"/>
	<rect x="25.535" y="34.042" fill="#FFFFFF" width="3.047" height="1.882"/>
	<path fill="#FFFFFF" d="M56.666,16.646c0-2.209-1.791-4-4-4h-41c-2.209,0-4,1.791-4,4v26.021H3.332v3.167
		c0,1.749,1.791,3.167,4,3.167H57c2.209,0,4-1.418,4-3.167s0-3.167,0-3.167h-4.334V16.646z M19.084,18.854h26.164v18.458H19.084
		V18.854z M45.998,47.226H18.334c-0.276,0-0.5-0.224-0.5-0.5s0.224-0.5,0.5-0.5h27.664c0.276,0,0.5,0.224,0.5,0.5
		C46.498,47.002,46.274,47.226,45.998,47.226z"/>
</g>
</svg>
