<?xml version="1.0" encoding="utf-8"?>
<!-- Generator: Adobe Illustrator 17.0.0, SVG Export Plug-In . SVG Version: 6.00 Build 0)  -->
<!DOCTYPE svg PUBLIC "-//W3C//DTD SVG 1.1//EN" "http://www.w3.org/Graphics/SVG/1.1/DTD/svg11.dtd">
<svg version="1.1" id="Capa_1" xmlns="http://www.w3.org/2000/svg" xmlns:xlink="http://www.w3.org/1999/xlink" x="0px" y="0px"
	 width="64px" height="64px" viewBox="0 0 64 64" enable-background="new 0 0 64 64" xml:space="preserve">
<g>
	<polygon fill="#FFFFFF" points="54.419,26 41.419,13 34.581,13 47.581,26 	"/>
	<polygon fill="#FFFFFF" points="44.753,26 31.753,13 25.247,13 38.247,26 	"/>
	<polygon fill="#FFFFFF" points="35.419,26 22.419,13 15.247,13 28.247,26 	"/>
	<path fill="#FFFFFF" d="M50,13h-5.753L57,25.753V20C57,16.134,53.866,13,50,13z"/>
	<path fill="#FFFFFF" d="M25.419,26L12.783,13.364c-2.473,0.826-4.326,2.993-4.704,5.64c4.215,0.037,7.526,3.032,8.371,6.996H25.419
		z"/>
	<path fill="#FFFFFF" d="M56.434,28.015L56.419,28h-9.637l-0.015,0.015L46.753,28h-9.305l-0.015,0.015L37.419,28h-9.971
		l-0.015,0.015L27.419,28H16.667c0,4.941-3.726,9-8.667,9v9c0,3.866,3.134,7,7,7h35c3.866,0,7-3.134,7-7V28h-0.552L56.434,28.015z
		 M42,47.508V31.492l8.008,8.008L42,47.508z"/>
	<path fill="#FFFFFF" d="M8,30.481v4.186c3.969,0,6.623-3.022,6.663-6.667c0-0.028,0.004-0.055,0.004-0.083
		c0-0.664-0.09-1.307-0.255-1.917c-0.753-2.771-3.133-4.833-6.411-4.833v4.353c0.546,0,1.046,0.182,1.456,0.481
		c0.618,0.451,1.025,1.176,1.025,2C10.481,29.37,9.37,30.481,8,30.481z"/>
</g>
</svg>
